<svg id="Layer_1" data-name="Layer 1" xmlns="http://www.w3.org/2000/svg" viewBox="0 0 30 30"><defs><style>.cls-1{fill:#49aa26;}</style></defs><path class="cls-1" d="M26,5H4A.94.94,0,0,0,3,6V18a.94.94,0,0,0,1,1H26a.94.94,0,0,0,1-1V6A.94.94,0,0,0,26,5ZM5.5,14a.75.75,0,0,0-.5.1V9.9a.75.75,0,0,0,.5.1A2.48,2.48,0,0,0,8,7.5.75.75,0,0,0,7.9,7H22v.5A2.48,2.48,0,0,0,24.5,10a.75.75,0,0,0,.5-.1V14a4.33,4.33,0,0,0-.5-.1A2.48,2.48,0,0,0,22,16.4a.75.75,0,0,0,.1.5H7.9c.1,0,.1-.2.1-.4A2.48,2.48,0,0,0,5.5,14ZM12,12a3,3,0,1,1,3,3A2.95,2.95,0,0,1,12,12ZM5,22V21H25v1a.94.94,0,0,1-1,1H6A.94.94,0,0,1,5,22Zm2.4,4V25h15v1a.94.94,0,0,1-1,1H8.4A.94.94,0,0,1,7.4,26Z"/></svg>