<?xml version="1.0" encoding="utf-8"?>
<!-- Generator: Adobe Illustrator 25.2.1, SVG Export Plug-In . SVG Version: 6.00 Build 0)  -->
<svg version="1.1" id="Camada_1" xmlns="http://www.w3.org/2000/svg" xmlns:xlink="http://www.w3.org/1999/xlink" x="0px" y="0px"
	 viewBox="0 0 768 768" style="enable-background:new 0 0 768 768;" xml:space="preserve">
<style type="text/css">
	.st0{fill:#E92929;}
</style>
<g id="icomoon-ignore">
</g>
<path class="st0" d="M384,0C171.9,0,0,171.9,0,384s171.9,384,384,384c212.1,0,384-171.9,384-384l0,0C767.8,172,596,0.2,384,0L384,0z
	 M384,732C191.8,732,36,576.2,36,384S191.8,36,384,36s348,155.8,348,348l0,0C731.8,576.1,576.1,731.8,384,732L384,732z"/>
<path class="st0" d="M552.7,214.7c-3.3-3.3-7.8-5.3-12.7-5.3s-9.5,2-12.7,5.3l0,0L384,358.5l-143.2-144c-3.3-3.3-7.8-5.3-12.8-5.3
	c-10,0-18,8.1-18,18c0,5,2,9.5,5.3,12.8l0,0l143.3,144L215.3,528c-3.2,3.3-5.3,7.8-5.3,12.7c0,9.9,8.1,18,18,18c5,0,9.5-2,12.8-5.3
	l0,0L384,409.5l143.3,144c3.3,3.3,7.8,5.3,12.8,5.3c10,0,18-8.1,18-18c0-5-2-9.5-5.3-12.8l0,0L409.4,384l143.3-144
	c3.2-3.2,5.1-7.7,5.1-12.6C557.9,222.5,555.9,218,552.7,214.7L552.7,214.7L552.7,214.7z"/>
</svg>
